<svg xmlns="http://www.w3.org/2000/svg" width="64" height="64" fill="none" viewBox="0 0 64 64">
  <defs>
    <linearGradient id="mane" x1="14" y1="4" x2="42" y2="42" gradientUnits="userSpaceOnUse">
      <stop offset="0%" stop-color="#39d0c4"/>
      <stop offset="45%" stop-color="#7c5cff"/>
      <stop offset="100%" stop-color="#ff8a5b"/>
    </linearGradient>
    <linearGradient id="face" x1="30" y1="20" x2="52" y2="56" gradientUnits="userSpaceOnUse">
      <stop offset="0%" stop-color="#2a2350"/>
      <stop offset="100%" stop-color="#171233"/>
    </linearGradient>
  </defs>
  <rect width="64" height="64" rx="15" fill="#0f1220"/>
  <path fill="url(#mane)" d="M20 40c-7-3-11-11-8-19 2 5 6 6 8 4-3-8 1-15 8-19-2 7 1 10 4 11-1-6 2-11 7-14-3 9 2 13 6 16 2 8-2 17-10 21-8 3-16 3-23 0Z"/>
  <path fill="url(#face)" stroke="#7c5cff" stroke-width="1.6" stroke-linejoin="round" d="M33 20c9 0 16 6 16 15 0 6-3 10-3 14 0 2-2 3-4 3h-3c-2 0-3-1-3-3l-1-4c-5-1-9-5-9-12 0-8 5-13 10-13Z"/>
  <path fill="url(#mane)" d="M31 21c-2-2-2-5-1-7 3 1 5 3 6 6Z"/>
  <path stroke="#ff8a5b" stroke-width="1.4" stroke-linecap="round" d="M44 40c3 0 5 2 5 4s-2 3-4 3"/>
  <circle cx="46" cy="45" r="1.4" fill="#ff8a5b"/>
  <circle cx="39" cy="33" r="2.3" fill="#fef6ff"/>
  <circle cx="39.6" cy="33.4" r="1.1" fill="#171233"/>
  <path fill="#39d0c4" d="M52 24l1.4 3.4L57 29l-3.6 1.6L52 34l-1.4-3.4L47 29l3.6-1.6Z"/>
</svg>
